<?xml version="1.0" encoding="utf-8"?>
<!-- Generator: Adobe Illustrator 16.0.0, SVG Export Plug-In . SVG Version: 6.00 Build 0)  -->
<!DOCTYPE svg PUBLIC "-//W3C//DTD SVG 1.1//EN" "http://www.w3.org/Graphics/SVG/1.1/DTD/svg11.dtd">
<svg version="1.1" id="Layer_1" xmlns="http://www.w3.org/2000/svg" xmlns:xlink="http://www.w3.org/1999/xlink" x="0px" y="0px"
	 width="213.016px" height="28.168px" viewBox="0 0 213.016 28.168" enable-background="new 0 0 213.016 28.168"
	 xml:space="preserve">
<rect x="-0.083" y="0.075" display="none" fill="#4F4F4F" width="213" height="28"/>
<g>
	<path fill-rule="evenodd" clip-rule="evenodd" fill="#FFFFFF" d="M50.958,0c-7.716,0-13.972,6.306-13.972,14.084
		s6.255,14.084,13.972,14.084c7.715,0,13.972-6.306,13.972-14.084S58.673,0,50.958,0z M57.3,16.842
		c1.194,1.1,2.027,1.994,2.498,2.686c0.22,0.346,0.291,0.652,0.212,0.919c-0.079,0.268-0.26,0.401-0.542,0.401l-3.111,0.141
		c-0.44,0.032-0.974-0.235-1.602-0.801s-1.053-1.037-1.272-1.414c-0.126-0.22-0.354-0.346-0.684-0.377
		c-0.33-0.031-0.542,0.126-0.636,0.472l-0.094,1.225c-0.031,0.252-0.126,0.44-0.283,0.565c-0.157,0.126-0.291,0.197-0.4,0.213
		c-0.11,0.016-0.291,0.039-0.542,0.07c-0.817,0.031-1.532-0.008-2.145-0.118c-0.613-0.109-1.17-0.337-1.673-0.683
		c-0.503-0.346-0.903-0.66-1.202-0.943c-0.298-0.282-0.73-0.738-1.296-1.366c-1.539-2.199-2.686-4.101-3.44-5.702
		c-0.283-0.629-0.44-1.163-0.472-1.603c0.126-0.126,0.362-0.204,0.708-0.235c0.346-0.032,0.848-0.04,1.508-0.024
		c0.66,0.017,1.052,0.024,1.178,0.024c0.314-0.032,0.566,0.141,0.754,0.518c0.785,1.76,1.555,3.126,2.309,4.101
		c0.503,0.471,0.833,0.393,0.99-0.236c0.063,0,0.095-0.77,0.095-2.309c0.031-0.975-0.362-1.587-1.178-1.838
		c0.188-0.503,0.848-0.754,1.979-0.754c0.283,0,0.628,0.015,1.037,0.047c0.408,0.031,0.628,0.047,0.659,0.047
		c0.943,0,1.415,0.377,1.415,1.131c0,0.095-0.016,0.323-0.047,0.684c-0.032,0.361-0.055,0.707-0.071,1.037s-0.023,0.675-0.023,1.037
		c0,0.36,0.047,0.667,0.142,0.919c0.094,0.251,0.22,0.408,0.377,0.471c0.172-0.125,0.338-0.243,0.494-0.354
		c0.158-0.109,0.323-0.29,0.496-0.542c0.173-0.251,0.306-0.439,0.4-0.565c0.094-0.126,0.235-0.361,0.424-0.707
		c0.188-0.346,0.298-0.565,0.33-0.66c0.031-0.094,0.141-0.337,0.33-0.729c0.188-0.394,0.283-0.59,0.283-0.59l0.07-0.142
		c0.125-0.282,0.228-0.447,0.307-0.494s0.275-0.07,0.589-0.07h2.922c0.346,0,0.55,0.008,0.613,0.023s0.158,0.086,0.283,0.212
		c0.22,0.282,0.024,0.896-0.589,1.838s-1.202,1.728-1.768,2.356C56.845,15.601,56.735,16.307,57.3,16.842z"/>
</g>
</svg>