<?xml version="1.0" encoding="utf-8"?>
<!-- Generator: Adobe Illustrator 16.0.0, SVG Export Plug-In . SVG Version: 6.00 Build 0)  -->
<!DOCTYPE svg PUBLIC "-//W3C//DTD SVG 1.1//EN" "http://www.w3.org/Graphics/SVG/1.1/DTD/svg11.dtd">
<svg version="1.1" id="Layer_1" xmlns="http://www.w3.org/2000/svg" xmlns:xlink="http://www.w3.org/1999/xlink" x="0px" y="0px"
	 width="213.016px" height="28.168px" viewBox="0 0 213.016 28.168" enable-background="new 0 0 213.016 28.168"
	 xml:space="preserve">
<rect x="-0.083" y="0.075" display="none" fill="#4F4F4F" width="213" height="28"/>
<g>
	<path fill-rule="evenodd" clip-rule="evenodd" fill="#FFFFFF" d="M88.015,0.042c7.755,0,14.042,6.287,14.042,14.043
		c0,7.756-6.287,14.041-14.042,14.041s-14.042-6.285-14.042-14.041C73.973,6.329,80.259,0.042,88.015,0.042L88.015,0.042z
		 M85.935,14.095c0.041,0.051,0.018,0.408,0.018,0.477l0.002,7.559h3.277c0.02-1.99,0-4.031,0-6.031
		c0-0.027-0.006-1.936,0.002-1.977c0.006-0.025,0.007-0.021,0.014-0.033c0.004,0,2.085,0.018,2.158,0l0.037-0.012l0.288-2.758
		h-2.487c-0.01-0.407,0.002-0.826,0.002-1.235c0-0.373-0.008-0.833,0.213-1.038l2.259-0.228L91.715,6.05
		c-0.428-0.025-0.935-0.002-1.371-0.002c-0.454,0-0.914-0.01-1.359,0.021c-0.851,0.056-1.538,0.31-2.035,0.732
		c-0.72,1.154-0.999,0.163-1.004,4.519l-1.646,0.001l0.003,2.772L85.935,14.095L85.935,14.095z"/>	
</g>
</svg>