<?xml version="1.0" encoding="utf-8"?>
<!-- Generator: Adobe Illustrator 16.0.0, SVG Export Plug-In . SVG Version: 6.00 Build 0)  -->
<!DOCTYPE svg PUBLIC "-//W3C//DTD SVG 1.1//EN" "http://www.w3.org/Graphics/SVG/1.1/DTD/svg11.dtd">
<svg version="1.1" id="Layer_1" xmlns="http://www.w3.org/2000/svg" xmlns:xlink="http://www.w3.org/1999/xlink" x="0px" y="0px"
	 width="213.016px" height="28.168px" viewBox="0 0 213.016 28.168" enable-background="new 0 0 213.016 28.168"
	 xml:space="preserve">
<rect x="-0.083" y="0.075" display="none" fill="#4F4F4F" width="213" height="28"/>
<g>
	<path fill-rule="evenodd" clip-rule="evenodd" fill="#FFFFFF" d="M14.042,0.042c7.755,0,14.042,6.287,14.042,14.043
		c0,7.756-6.287,14.041-14.042,14.041S0,21.841,0,14.085C0,6.329,6.287,0.042,14.042,0.042L14.042,0.042z M21.957,14.163
		c0.063-0.057,0.014,0.02,0.062-0.092l0.114-0.396c0.609-0.02,1.03-0.065,1.523-0.262l1.014-0.695
		c-0.336-0.004-0.689,0.087-1.235,0.002l-1.107-0.231c0.091-0.059,0.232-0.06,0.361-0.079c0.133-0.021,0.248-0.038,0.378-0.068
		c0.256-0.06,0.442-0.117,0.657-0.216l0.851-0.832c-0.388,0.152-0.739,0.217-1.264,0.223c-0.254,0.003-1.179-0.013-1.264-0.239
		c-0.101-0.27-0.1-0.524-0.312-1.029c-0.135-0.322-0.302-0.63-0.49-0.906c-0.386-0.57-0.863-1.045-1.428-1.408l-2.331-0.653
		c0.146-0.14,0.695-0.251,0.894-0.304c1.039-0.277,0.949-0.657,0.697-0.728c-0.321-0.09-1.104,0.205-1.455,0.312l0.628-0.666
		c-0.653,0.062-1.081,0.388-1.57,0.688l0.204-0.5c-0.616,0.207-1.728,1.675-2.035,2.263l-1.305,2.861
		c-0.111-0.046-0.882-0.837-1.472-1.188c-0.515-0.308-1.202-0.636-1.793-0.909C8.856,8.45,7.84,8.049,6.384,7.516
		c-0.073,1.279,0.748,1.982,1.772,2.67L6.908,10.35c0.021,0.546,0.443,1.115,0.763,1.388c0.582,0.497,0.887,0.499,1.421,0.701
		l0.11,0.057c-0.861,0.149-0.604,0.054-1.352,0.538c0.009,0.341,0.75,1.065,1.309,1.188l1.245,0.162
		c-0.086,0.08-0.221,0.135-0.322,0.199c-0.127,0.082-0.18,0.131-0.271,0.24c-0.172,0.209-0.261,0.445-0.148,0.732l1.441,0.656
		c-0.077,0.154-0.547,0.531-0.706,0.641c-0.862,0.598-1.832,1.018-3.067,1.072c-0.878,0.039-1.728-0.129-2.399-0.398
		c-0.774-0.309-1.091-0.568-1.682-1.023c0.173,0.297,0.566,0.709,0.806,0.963c2.259,2.396,5.915,3.719,9.736,3.037
		c2.333-0.416,3.836-1.223,5.203-2.221c0.225-0.164,0.762-0.646,0.955-0.846c0.594-0.611,1.123-1.268,1.509-2.025
		C21.574,15.183,21.975,14.394,21.957,14.163L21.957,14.163z"/>	
</g>
</svg>