<?xml version="1.0" encoding="utf-8"?>
<!-- Generator: Adobe Illustrator 16.0.0, SVG Export Plug-In . SVG Version: 6.00 Build 0)  -->
<!DOCTYPE svg PUBLIC "-//W3C//DTD SVG 1.1//EN" "http://www.w3.org/Graphics/SVG/1.1/DTD/svg11.dtd">
<svg version="1.1" id="Layer_1" xmlns="http://www.w3.org/2000/svg" xmlns:xlink="http://www.w3.org/1999/xlink" x="0px" y="0px"
	 width="213.016px" height="28.168px" viewBox="0 0 213.016 28.168" enable-background="new 0 0 213.016 28.168"
	 xml:space="preserve">
<rect x="-0.083" y="0.075" display="none" fill="#4F4F4F" width="213" height="28"/>
<g>
	<g>
		<path fill-rule="evenodd" clip-rule="evenodd" fill="#FFFFFF" d="M124.94,16.926c1.582-0.003,2.848-1.28,2.835-2.864
			c-0.012-1.584-1.295-2.853-2.869-2.84c-1.557,0.014-2.815,1.29-2.813,2.853C122.093,15.665,123.357,16.93,124.94,16.926z"/>
		<path fill-rule="evenodd" clip-rule="evenodd" fill="#FFFFFF" d="M125.266,18.688c-1.292,0.088-2.446-0.297-3.405-1.172
			c-1.34-1.224-1.764-2.766-1.433-4.537c-0.418,0-0.798,0-1.197,0c-0.012,0.089-0.025,0.155-0.025,0.223
			c-0.001,1.972-0.005,3.941,0.001,5.912c0.001,0.499,0.201,0.682,0.73,0.683c3.331,0.005,6.661,0.005,9.993-0.001
			c0.565,0,0.723-0.176,0.724-0.764c0.001-1.888,0-3.775,0-5.662c0-0.132,0-0.265,0-0.399c-0.438,0-0.811,0-1.214,0
			C130.056,16.254,127.728,18.518,125.266,18.688z"/>
		<path fill-rule="evenodd" clip-rule="evenodd" fill="#FFFFFF" d="M124.93,0c-7.716,0-13.972,6.306-13.972,14.084
			s6.256,14.084,13.972,14.084s13.972-6.306,13.972-14.084S132.646,0,124.93,0z M132.421,19.694c0,1.129-0.702,1.866-1.833,1.87
			c-3.774,0.012-7.549,0.012-11.323-0.002c-1.114-0.005-1.818-0.719-1.821-1.84c-0.012-3.761-0.011-7.521-0.001-11.281
			c0.003-1.149,0.738-1.846,1.897-1.847c1.859-0.001,3.72,0,5.577,0c1.875,0,3.747-0.001,5.62,0
			c1.155,0.001,1.883,0.714,1.884,1.859C132.426,12.2,132.426,15.947,132.421,19.694z"/>
		<path fill-rule="evenodd" clip-rule="evenodd" fill="#FFFFFF" d="M128.422,11.181c0.265,0.005,0.526,0.001,0.788,0
			c0.277,0,0.555,0.002,0.83,0c0.384-0.005,0.601-0.203,0.608-0.584c0.014-0.554,0.014-1.106,0-1.659
			c-0.007-0.357-0.203-0.566-0.572-0.571c-0.553-0.007-1.106-0.005-1.66,0c-0.362,0.002-0.572,0.187-0.578,0.557
			c-0.007,0.567-0.01,1.134,0.001,1.702C127.847,10.993,128.063,11.172,128.422,11.181z"/>
	</g>	
	
</g>
</svg>